PathFileType	4	(X/Y/Z)	E:\Qualisys_Data\Carbon_Farble_Plate\Data\Amateur_Runner\S14\T3\S14T3V21_c3d.trc
DataRate	CameraRate	NumFrames	NumMarkers	Units	OrigDataRate	OrigDataStartFrame	OrigNumFrames
200.000000	200.000000	4	39	mm	200.000000	244	326
Frame#	Time	LSHO			RSHO			LICST			RICST			LASIS			LHEEL			RASIS			LTROC			RTROC			SACR			LTH1			LSK4			LTH2			LTH3			RHM5			LSK2			LTH4			RTH1			LTOE			RTH2			RTH3			RTH4			LLEP			RLEP			LSK1			LSK3			RSK1			LHM5			RSK2			LFT1			RSK3			RSK4			LLME			RLME			RTOE			RHEEL			RFT1			RFT2			LFT2			
		X1	Y1	Z1	X2	Y2	Z2	X3	Y3	Z3	X4	Y4	Z4	X5	Y5	Z5	X6	Y6	Z6	X7	Y7	Z7	X8	Y8	Z8	X9	Y9	Z9	X10	Y10	Z10	X11	Y11	Z11	X12	Y12	Z12	X13	Y13	Z13	X14	Y14	Z14	X15	Y15	Z15	X16	Y16	Z16	X17	Y17	Z17	X18	Y18	Z18	X19	Y19	Z19	X20	Y20	Z20	X21	Y21	Z21	X22	Y22	Z22	X23	Y23	Z23	X24	Y24	Z24	X25	Y25	Z25	X26	Y26	Z26	X27	Y27	Z27	X28	Y28	Z28	X29	Y29	Z29	X30	Y30	Z30	X31	Y31	Z31	X32	Y32	Z32	X33	Y33	Z33	X34	Y34	Z34	X35	Y35	Z35	X36	Y36	Z36	X37	Y37	Z37	X38	Y38	Z38	X39	Y39	Z39	

245	1.22	1306.222290039062	1431.184448242188	-524.5257568359375	1402.872192382812	1427.354125976562	-246.4458618164062	1340.523193359375	973.1834106445312	-488.4918518066406	1381.764282226562	987.0662231445312	-215.6446228027344	1388.447387695312	925.3212280273438	-464.7734069824219	1517.192016601562	60.2369384765625	-362.0053405761719	1404.2080078125	943.0008544921876	-233.0477905273438	1269.38818359375	847.7510375976562	-505.0072326660156	1248.473876953125	875.3024291992188	-167.7725677490234	1220.39208984375	972.1242065429688	-350.6951904296875	1420.564697265625	645.587158203125	-504.8887023925781	1466.965576171875	276.7140808105469	-442.7226867675781	1357.089111328125	616.40087890625	-470.53662109375	1475.9638671875	567.27294921875	-475.8179931640625	769.4055786132812	237.8783721923828	-198.4754638671875	1447.824340820312	372.5352478027344	-460.4710998535156	1407.068237304688	533.5380249023438	-452.7510375976562	1310.799194335938	633.340087890625	-177.1746978759766	1754.968994140625	162.6103973388672	-415.8478393554688	1238.08642578125	658.0344848632812	-165.2221374511719	1281.073974609375	538.3328247070312	-196.2081146240234	1202.093505859375	564.1613159179688	-183.0002746582031	1469.113037109375	478.5330505371094	-467.3510437011719	1201.718627929688	493.3660583496094	-179.9189453125	1527.830322265625	389.1767578125	-465.51904296875	1546.636962890625	290.2917175292969	-451.0474243164062	1096.239624023438	420.62353515625	-186.4765014648438	1693.603393554688	111.9705047607422	-466.4312133789062	1061.827758789062	499.6337890625	-190.9918823242188	1543.7080078125	40.70446395874023	-337.1916198730469	999.740966796875	384.9214782714844	-205.4176483154297	975.0032348632812	460.9635620117188	-209.8361053466797	1554.583251953125	107.159294128418	-425.2513122558594	827.8754272460938	372.2343444824219	-235.1147613525391	796.6367797851562	160.4393310546875	-251.1439056396484	801.6275024414062	413.0924377441406	-302.1999816894531	781.821533203125	396.7219848632812	-331.3157348632812	778.037109375	418.6258239746094	-282.6109008789062	1531.842041015625	33.61503601074219	-390.3269653320312
246	1.225	1326.591064453125	1426.087646484375	-525.73974609375	1421.803466796875	1423.207275390625	-246.9603576660156	1359.780029296875	968.8185424804688	-488.6705322265625	1401.1865234375	983.15478515625	-216.0755157470703	1407.995239257812	921.5094604492188	-465.1029663085938	1527.249389648438	64.4671859741211	-362.9292297363281	1424.005615234375	939.3160400390624	-233.0707855224609	1288.229248046875	843.5868530273438	-504.3729553222656	1268.967041015625	870.4990844726562	-167.6315765380859	1240.149047851562	967.7919921875	-350.5343627929688	1440.481079101562	641.5729370117188	-502.9057006835938	1482.74609375	272.2435607910156	-441.5193481445312	1377.074951171875	612.2979125976562	-470.2394714355469	1495.200805664062	563.1896362304688	-474.2733764648438	792.6846313476562	240.4395294189453	-198.7987365722656	1467.018798828125	368.1734619140625	-458.1068725585938	1426.149047851562	529.4143676757812	-451.84423828125	1333.99853515625	629.1924438476562	-176.6208343505859	1771.427368164062	149.6485748291016	-412.5423889160156	1260.628051757812	652.764892578125	-164.7117919921875	1305.559936523438	533.3137817382812	-194.6925201416016	1226.129760742188	558.6141357421875	-181.8330383300781	1487.40625	473.8463134765625	-466.5543823242188	1227.596923828125	487.0702514648438	-178.7054748535156	1545.197143554688	383.8146362304688	-464.8159484863281	1562.796630859375	284.50341796875	-449.6705017089844	1120.57421875	416.5876159667969	-185.7479553222656	1706.559692382812	102.9706039428711	-463.1253662109375	1087.684326171875	495.9764404296875	-190.8013916015625	1550.078857421875	39.89130401611328	-337.4973449707031	1023.653930664062	383.4029235839844	-205.4284973144531	1000.36328125	459.3785705566406	-209.5703735351562	1568.049194335938	102.9234848022461	-423.468505859375	851.9140014648438	374.4815979003906	-235.8956756591797	819.1730346679688	162.6595764160156	-250.4403076171875	827.8397827148438	416.3706665039062	-302.8982238769531	805.8111572265625	398.7146911621094	-332.1895141601562	802.4573974609375	420.7951049804688	-283.0946044921875	1539.570190429688	35.96067428588867	-390.1291198730469
247	1.23	1346.914306640625	1420.808471679688	-526.8477783203125	1440.154052734375	1418.89990234375	-247.1600036621094	1378.605102539062	964.3659057617188	-489.04931640625	1420.937866210938	979.226806640625	-216.2642517089844	1427.579467773438	917.3211669921876	-465.4841613769531	1535.72998046875	64.23052215576172	-362.0985717773438	1443.77587890625	934.986083984375	-232.8277893066406	1307.073974609375	838.7286376953125	-503.2393493652344	1289.860595703125	865.6516723632812	-167.1059265136719	1259.89794921875	963.1612548828124	-349.9410095214844	1460.916748046875	637.950439453125	-501.1395874023438	1498.186279296875	267.3489685058594	-440.4853515625	1396.446655273438	608.3076782226562	-469.9560241699219	1514.453735351562	558.6635131835938	-472.7261657714844	816.434814453125	243.0480041503906	-197.7570648193359	1481.506103515625	363.8475646972656	-458.8232116699219	1445.262939453125	524.7645874023438	-451.7423095703125	1357.051147460938	624.6717529296875	-175.8902435302734	1784.16015625	133.0130615234375	-408.6488647460938	1283.52294921875	647.078125	-164.1217346191406	1330.251098632812	528.6226806640625	-193.3611602783203	1250.348022460938	552.4249877929688	-181.1566009521484	1505.6533203125	468.6985473632812	-466.0479736328125	1252.579467773438	481.4215698242188	-177.636474609375	1562.395874023438	378.3265991210938	-463.6578979492188	1578.447021484375	278.8433532714844	-448.2727966308594	1145.248779296875	412.4272766113281	-185.2662963867188	1717.340454101562	90.15099334716795	-459.6158142089844	1113.95166015625	492.5519104003906	-190.3918609619141	1555.809936523438	38.14177322387695	-337.0238037109375	1048.071899414062	380.3025817871094	-205.4994049072266	1026.338134765625	457.1703186035156	-209.295166015625	1579.87158203125	97.65972900390624	-422.2752380371094	876.6136474609375	375.3575439453125	-236.787109375	842.6136474609375	164.3598022460938	-250.2498779296875	853.4713745117188	417.9529418945312	-303.47119140625	830.1422119140625	400.5159301757812	-333.0720520019531	827.1881713867188	422.6671142578125	-284.3687133789062	1546.34716796875	35.77470397949219	-389.6467895507812
248	1.235	1367.221313476562	1415.331787109375	-527.9915771484375	1458.548950195312	1414.39013671875	-247.6340179443359	1397.995239257812	959.9791870117188	-489.3847045898438	1440.57763671875	975.030029296875	-216.0973205566406	1447.06298828125	913.3884887695312	-465.8924865722656	1542.157836914062	63.85146331787109	-361.6594848632812	1463.521728515625	931.1359252929688	-233.2981719970703	1326.001953125	833.8070678710938	-501.9710998535156	1310.122680664062	860.1041870117188	-166.6390533447266	1279.89990234375	958.2645874023438	-349.1183776855469	1481.230346679688	633.6475830078125	-499.0591125488281	1513.443969726562	263.0057983398438	-439.7212829589844	1416.321166992188	603.8182373046875	-469.9005737304688	1534.120361328125	554.3280029296875	-472.1790771484375	840.9671020507812	244.7547607421875	-198.0563659667969	1498.785888671875	359.9396667480469	-458.4874267578125	1464.591796875	520.557373046875	-451.3308715820312	1380.249755859375	619.9760131835938	-174.9359436035156	1796.121948242188	113.7138671875	-404.4656982421875	1306.440795898438	641.4428100585938	-163.4860687255859	1354.840698242188	523.3175048828125	-192.2980804443359	1274.606567382812	546.2135009765625	-180.2402801513672	1524.788818359375	464.2825927734375	-465.4239807128906	1277.953491210938	474.7661437988281	-176.5800476074219	1579.652954101562	372.6421813964844	-462.4987487792969	1593.710693359375	272.9932250976562	-446.27197265625	1170.416870117188	408.459228515625	-184.0673828125	1726.164672851562	75.14558410644531	-456.650634765625	1140.431030273438	488.5125732421875	-190.0963439941406	1560.331787109375	35.9578971862793	-336.3274536132812	1072.876342773438	378.1857299804688	-204.8615112304688	1052.276123046875	454.6485595703125	-209.6996917724609	1589.341186523438	92.48150634765624	-420.9817504882812	901.5448608398438	376.7279968261719	-237.2885131835938	866.4611206054688	165.7782135009766	-249.8508605957031	875.735107421875	417.7003784179688	-305.3539428710938	855.2526245117188	401.3142700195312	-333.4627075195312	852.2488403320312	423.7799072265625	-285.0718994140625	1551.027709960938	35.51250457763672	-388.9698791503906
